<?xml version="1.0" encoding="UTF-8"?>
<!-- Dynamic SVG -->
<svg id="Layer_1" xmlns="http://www.w3.org/2000/svg" version="1.1" viewBox="0 0 100 100">
    <defs>
        <style>
            .dynamic-stroke-main {
                stroke: var(--ink-color, #000);
                stroke-width: 4.5px;
            }

            .dynamic-stroke-main, .dynamic-stroke-accent {
                fill: none;
                stroke-linecap: round;
                stroke-linejoin: round;
            }

            .dynamic-stroke-accent {
                stroke: var(--highlight-color, #000);
                stroke-width: 2px;
            }
        </style>
    </defs>
    <path class="dynamic-stroke-main"
          d="M31.3447,54.304l2.1236-4.6217c1.4265-3.1045,6.1122-1.4814,5.3128,1.8402l-1.5664,6.5087c-.1147.337-.2011.6879-.2531,1.0516l-1.4378,10.0668c-.3131,2.1924-1.2877,4.237-2.7935,5.8609l-8.6124,9.2877c-1.9757,2.1306-2.1936,5.8057-.2606,7.9751,2.3121,2.5948,6.2905,2.5851,8.5978.0989l12.3281-13.295c.803-.866,1.3227-1.9563,1.4897-3.1255l.6111-4.2785c.2324-1.6271,2.1813-2.3423,3.411-1.2519l1.5294,1.3562c.9263.8214,1.4919,1.9746,1.5743,3.2099l.9223,13.8259c.204,3.065,2.7544,5.4153,5.7826,5.4153.1294,0,.2606-.0038.3919-.0132,3.1963-.2125,5.6154-2.9772,5.402-6.1744l-1.2086-18.1296c-.1015-1.522-.7983-2.9428-1.9397-3.9547l-7.2092-6.3917c-1.3005-1.153-1.8223-2.9509-1.3412-4.621l1.4988-5.2026c.2123-.7369,1.191-.8858,1.6128-.2453l1.4823,2.2508c.8452,1.2833,2.1649,2.1788,3.6697,2.49l12.8569,2.659c3.3781.6958,6.6817-1.6975,6.962-5.2533.2318-2.9416-1.9132-5.551-4.8028-6.1487l-7.9055-1.6351c-1.8361-.3798-2.7354-.9912-3.3129-1.8681l-5.3154-8.0712c-3.3326-5.0605-9.6261-7.2842-15.3981-5.4407l-12.1029,3.8654c-3.5516,1.1343-6.4631,3.7087-8.0238,7.0946l-4.5064,9.7768c-1.3031,2.827-.327,6.3029,2.4177,7.7715.8796.4706,1.8188.6908,2.7409.6908,2.194,0,4.294-1.2511,5.2727-3.3738Z"/>
    <path class="dynamic-stroke-accent stroke-color-animation"
          d="M71.3066,64.2354c.7764,1.5879,1.2441,3.3281,1.3652,5.1426l1.208,18.1309"/>
    <path class="dynamic-stroke-accent stroke-color-animation"
          d="M15.9981,40.7684l2.1567-4.6785c2.4932-5.4106,7.1792-9.5537,12.8555-11.3662l6.0841-1.943"/>
    <circle class="dynamic-stroke-accent stroke-color-animation" cx="56.3062" cy="13.2732" r="9.5074"/>
</svg>
