<?xml version="1.0" encoding="UTF-8"?>
<!-- Dynamic SVG -->
<svg id="Layer_1" xmlns="http://www.w3.org/2000/svg" version="1.1" viewBox="0 0 100 100">
    <defs>
        <style>
            .dynamic-stroke-main {
                stroke: var(--ink-color, #000);
                stroke-width: 4.5px;
            }

            .dynamic-stroke-main, .dynamic-stroke-accent {
                fill: none;
                stroke-linecap: round;
                stroke-linejoin: round;
            }

            .dynamic-stroke-accent {
                stroke: var(--highlight-color, #000);
                stroke-width: 2px;
            }
        </style>
    </defs>
    <path class="dynamic-stroke-main"
          d="M64.1393,91.7084v-28.1212c0-2.1264,2.1642-3.595,4.1219-2.765,2.1364.9058,4.5541,1.2763,7.0891.9395,6.0266-.8007,10.8534-5.7127,11.5624-11.7508.3498-2.9792-.2759-5.7882-1.5954-8.1595-.8794-1.5804-.3473-3.7754,1.1616-4.7725,2.9226-1.9313,4.8455-5.2521,4.8249-9.0226-.0311-5.6941-4.7137-10.499-10.4051-10.6759-.8112-.0252-1.6019.0413-2.3638.1889-1.6081.3115-3.2504-.5427-3.9651-2.0167-2.5029-5.1621-7.7824-8.7243-13.905-8.7243-3.3426,0-6.4352,1.0623-8.9632,2.8661-1.5447,1.1022-3.6434.7457-4.9114-.666-1.963-2.1855-4.8073-3.5611-7.9773-3.5611-4.6917,0-9.6028,2.5645-10.6689,7.6367-.431,2.0505-2.2837,3.4788-4.3642,3.2304-1.2777-.1525-2.6114-.1237-3.979.1183-5.9466,1.052-10.5445,6.0957-11.0545,12.1131-.3997,4.7168,1.6325,8.9701,4.9762,11.6676,1.2906,1.0412,1.7926,2.7989,1.1297,4.3189-1.127,2.5842-1.5696,5.5342-1.0873,8.6282,1.0025,6.4323,6.1225,11.6195,12.5329,12.7532,1.5729.2782,3.1065.3101,4.5751.1327,2.6569-.3209,4.988,1.7651,4.988,4.4412v21.2007"/>
    <path class="dynamic-stroke-accent stroke-color-animation"
          d="M27.0148,41.4067c.9621.5089,2.0589.7971,3.2231.7971,3.8122,0,6.9025-3.0903,6.9025-6.9025,0-.0208-.003-.0409-.0031-.0618,1.1163.492,2.3482.77,3.6465.77,5.0025,0,9.0577-4.0552,9.0577-9.0577,0-1.3314-.2872-2.5957-.8031-3.7342"/>
    <path class="dynamic-stroke-accent stroke-color-animation"
          d="M70.737,33.3429c-6.6285,0-12.002,5.3735-12.002,12.002"/>
</svg>
