<?xml version="1.0" encoding="UTF-8"?>
<svg id="Layer_1" data-name="Layer 1" xmlns="http://www.w3.org/2000/svg" xmlns:xlink="http://www.w3.org/1999/xlink" viewBox="0 0 100 100">
  <defs>
    <style>
      
      .stroked-icon-medium-masked {
        mask: url(#stroked-icon-medium-mask);
      }
      
      .stroked-icon-accent {
        stroke: var(--highlight-color, #f46023);
      }
      
      .stroked-icon-stroke {
        fill: none;
        stroke-linecap: round;
        stroke-linejoin: round;
      }
      
      .stroked-icon-medium-stroke {
        stroke-width: 8px;
      }
      
      .stroked-icon-mask-stroke {
        stroke: #000;
      }
      
      .stroked-icon-medium-mask-stroke, .stroked-icon-medium-mask-correction {
        stroke-width: 15px;
      }
      
      .stroked-icon-mask-back {
        fill: #fff;
      }
      
      
      .stroked-icon-accent-fill {
        fill: var(--highlight-color, #f46023);
      }
      
      .stroked-icon-ink {
        stroke: var(--ink-color, #eeeeee);
      }
    
    
    </style>
    <mask id="stroked-icon-medium-mask" x="-.5" y="-.5" width="101" height="100.5" maskUnits="userSpaceOnUse">
      <g>
        <rect class="stroked-icon-mask-back" x="0" width="100" height="100"/>
        <polyline class="stroked-icon-medium-mask-stroke stroked-icon-stroke stroked-icon-mask-stroke" points="82 39 93 50 71 50"/>
        <polyline class="stroked-icon-medium-mask-stroke stroked-icon-stroke stroked-icon-mask-stroke" points="39 18 50 7 61 18"/>
        <polyline class="stroked-icon-medium-mask-stroke stroked-icon-stroke stroked-icon-mask-stroke" points="29 50 7 50 18 39"/>
      </g>
    </mask>
  </defs>
  <g class="stroked-icon-medium-masked">
    <g>
      <line class="stroked-icon-medium-stroke stroked-icon-stroke stroked-icon-accent" x1="18" y1="52.1664" x2="18" y2="91"/>
      <line class="stroked-icon-ink stroked-icon-medium-stroke stroked-icon-stroke" x1="18" y1="11" x2="18" y2="52.1664"/>
      <line class="stroked-icon-ink stroked-icon-medium-stroke stroked-icon-stroke" x1="50" y1="14.5" x2="50" y2="56.241"/>
      <line class="stroked-icon-medium-stroke stroked-icon-stroke stroked-icon-accent" x1="82" y1="52.1664" x2="82" y2="91"/>
      <line class="stroked-icon-ink stroked-icon-medium-stroke stroked-icon-stroke" x1="82" y1="11" x2="82" y2="52.1664"/>
    </g>
  </g>
  <path class="stroked-icon-ink stroked-icon-medium-stroke stroked-icon-stroke" d="M58.8907,91c2.2659-2.2659,3.6674-5.3962,3.6674-8.8538,0-6.9152-5.6059-12.5211-12.5211-12.5211s-12.5211,5.6059-12.5211,12.5211c0,3.4576,1.4015,6.5879,3.6674,8.8538"/>
  <circle class="stroked-icon-accent-fill" cx="41.1832" cy="91" r="4"/>
  <polyline class="stroked-icon-medium-stroke stroked-icon-stroke stroked-icon-accent" points="82 39 93 50 71 50"/>
  <polyline class="stroked-icon-medium-stroke stroked-icon-stroke stroked-icon-accent" points="39 18 50 7 61 18"/>
  <polyline class="stroked-icon-medium-stroke stroked-icon-stroke stroked-icon-accent" points="29 50 7 50 18 39"/>
</svg>
