<?xml version="1.0" encoding="UTF-8"?>
<svg id="Layer_1" data-name="Layer 1" xmlns="http://www.w3.org/2000/svg" viewBox="0 0 500 181.2914">
    <defs>
        <style>
            .cls-1 {
                fill: #303030;
            }
            
            .cls-2 {
                fill: #f46023;
            }
        </style>
    </defs>
    <g>
        <path class="cls-1" d="M31.4353,94.6066v-24.537H9.4063v24.537H2.1888v-52.3406h7.2175v21.8783h22.029v-21.8783h7.2175v52.3406h-7.2175Z"/>
        <path class="cls-1"
              d="M81.6119,59.2821c3.1147,3.7484,4.6714,8.8382,4.6714,15.2693,0,4.1533-.7101,7.8125-2.1265,10.977-1.4189,3.1657-3.4703,5.6214-6.1542,7.3688s-5.8749,2.6212-9.5716,2.6212c-5.6214,0-10.0023-1.8736-13.1416-5.622-3.1405-3.7472-4.7095-8.837-4.7095-15.2687,0-4.152.7076-7.8119,2.1265-10.9776,1.4177-3.1645,3.4691-5.6214,6.153-7.3682,2.6839-1.7475,5.8995-2.6212,9.6479-2.6212,5.6214,0,9.99,1.8742,13.1047,5.6214ZM58.1,74.6277c0,10.1789,3.4432,15.2687,10.3309,15.2687s10.3321-5.1144,10.3321-15.345c0-10.1795-3.4186-15.2693-10.2558-15.2693-6.9394,0-10.4072,5.1162-10.4072,15.3456Z"/>
        <path class="cls-1"
              d="M127.6081,94.6066h-6.0016l-.5316-6.2293c-1.5198,2.4821-3.266,4.2923-5.2411,5.4319s-4.3809,1.7093-7.2175,1.7093c-3.4937,0-6.2293-1.0639-8.2044-3.191s-2.9621-5.1396-2.9621-9.04v-28.7149h6.9886v27.9556c0,2.7344.4812,4.6714,1.4435,5.8109.9611,1.1395,2.5313,1.7093,4.7095,1.7093,3.8998,0,7.2421-2.3037,10.0282-6.9129v-28.5629h6.9886v40.0339Z"/>
        <path class="cls-1"
              d="M160.2731,54.8003c2.1769.7599,4.2542,1.8994,6.2293,3.4186l-2.9633,4.4062c-1.8225-1.1648-3.5577-2.025-5.203-2.583-1.6465-.5568-3.3805-.8356-5.2042-.8356-2.2791,0-4.077.4689-5.3937,1.4053-1.3167.9377-1.9751,2.2157-1.9751,3.8364s.6202,2.8864,1.8619,3.7983c1.2404.9113,3.4814,1.7979,6.7228,2.6587,4.456,1.1143,7.786,2.6341,9.9888,4.5581,2.204,1.9253,3.3054,4.5575,3.3054,7.9005,0,3.9502-1.5333,6.964-4.5963,9.04-3.0642,2.0773-6.7991,3.1147-11.2046,3.1147-6.0779,0-11.1173-1.7475-15.1179-5.2417l3.7226-4.2542c3.3928,2.583,7.1412,3.8739,11.2428,3.8739,2.6335,0,4.7218-.5433,6.2675-1.633,1.5444-1.0885,2.3172-2.5701,2.3172-4.4443,0-1.3672-.2793-2.4686-.8356-3.3042-.5587-.8356-1.5198-1.569-2.887-2.2034-1.3672-.6325-3.3682-1.3032-6.0016-2.0126-4.2542-1.1137-7.3307-2.6076-9.2295-4.4825-1.8988-1.873-2.8488-4.2536-2.8488-7.1406,0-2.076.6202-3.9619,1.8607-5.6595,1.2404-1.6958,2.9633-3.0125,5.1661-3.9502,2.2028-.9365,4.6726-1.4053,7.407-1.4053s5.1907.3796,7.3688,1.1395Z"/>
        <path class="cls-1"
              d="M207.5996,76.9825h-25.5251c.304,4.4062,1.4177,7.6476,3.3423,9.7236,1.9247,2.0773,4.4068,3.1147,7.4451,3.1147,1.9247,0,3.6967-.2775,5.3174-.8356,1.6207-.5568,3.3165-1.4435,5.0898-2.6587l3.0384,4.1779c-4.2542,3.3423-8.9132,5.0141-13.9772,5.0141-5.5722,0-9.9137-1.8238-13.0284-5.47s-4.6714-8.6597-4.6714-15.041c0-4.152.6707-7.8365,2.0133-11.0533,1.3401-3.2156,3.266-5.7352,5.7728-7.5584s5.4565-2.735,8.8505-2.735c5.3174,0,9.3932,1.7475,12.2297,5.2417s4.2542,8.3312,4.2542,14.5094c0,1.166-.0505,2.3554-.1514,3.5706ZM200.8387,71.3611c0-3.9502-.7864-6.9627-2.3554-9.04-1.5702-2.076-3.9256-3.1147-7.0649-3.1147-5.7235,0-8.8382,4.2044-9.344,12.61h18.7642v-.4553Z"/>
    </g>
    <g>
        <path class="cls-1"
              d="M435.2142,94.6066h-6.9886l-1.8225-23.6257c-.7605-9.2677-1.1912-16.3824-1.2921-21.346l-11.3191,39.0464h-6.7609l-11.927-39.1227c0,6.3314-.3298,13.6492-.9869,21.9545l-1.7475,23.0935h-6.8372l4.3305-52.3406h9.7242l11.0139,38.0588,10.4835-38.0588h9.8005l4.3293,52.3406Z"/>
        <path class="cls-1"
              d="M454.131,36.7203c.9106.9119,1.3672,2.0514,1.3672,3.4186s-.4566,2.495-1.3672,3.3805c-.9119.8866-2.1031,1.3297-3.5712,1.3297-1.4177,0-2.583-.443-3.4937-1.3297-.9119-.8854-1.3672-2.0133-1.3672-3.3805s.4553-2.5067,1.3672-3.4186c.9106-.9113,2.076-1.3672,3.4937-1.3672,1.4681,0,2.6593.4559,3.5712,1.3672ZM454.131,54.5726v40.0339h-6.9898v-40.0339h6.9898Z"/>
        <path class="cls-1"
              d="M482.6236,74.9352s3.3604,11.0262,15.1876,19.6713h-8.4321c-9.0657-7.3325-11.8438-16.9405-11.8438-16.9405,0,0-11.2485,5.885-7.9073,16.9405h-7.9005c-2.3638-12.373,15.0155-22.4016,15.0155-22.4016,0,0,.2625-8.8209-13.4207-17.6323h8.2044c9.2067,6.7112,9.9444,14.6614,9.9444,14.6614,0,0,9.8684-4.3798,6.8435-14.6614h7.9005c2.9478,12.1718-13.5915,20.3626-13.5915,20.3626Z"/>
    </g>
    <g>
        <path class="cls-1" d="M259.4579,8.6371c-3.4278,0-6.206,2.7788-6.206,6.206v23.4451c3.7923-2.3535,8.6197-2.3535,12.412,0V14.8431c0-3.4272-2.7781-6.206-6.206-6.206Z"/>
        <path class="cls-1" d="M340.1356,38.3707V14.8431c0-3.4272-2.7781-6.206-6.206-6.206s-6.206,2.7788-6.206,6.206v23.466c3.8017-2.3328,8.6292-2.3138,12.412.0616Z"/>
        <path class="cls-1" d="M296.6416,27.7951l-6.1539,6.1539v37.0474c0,3.4272,2.7781,6.206,6.206,6.206s6.206-2.7788,6.206-6.206v-36.9431l-6.2581-6.2581Z"/>
        <path class="cls-1"
              d="M306.4864,119.1035c-1.5891,0-3.1769-.6061-4.389-1.8182-2.423-2.4242-2.423-6.3532.0012-8.7769,1.4424-1.4424,2.2375-3.3612,2.2375-5.4036,0-4.2145-3.4278-7.6429-7.6423-7.6429s-7.6423,3.4284-7.6423,7.6429c0,2.0424.7951,3.9612,2.2375,5.4036,2.4242,2.4236,2.4242,6.3526.0012,8.7769-2.4242,2.4242-6.3526,2.4242-8.7769.0012-3.7878-3.7872-5.8739-8.8235-5.8739-14.1816,0-11.058,8.9962-20.0549,20.0543-20.0549s20.0543,8.9968,20.0543,20.0549c0,5.3581-2.086,10.3944-5.8739,14.1816-1.2121,1.2109-2.8,1.8169-4.3878,1.8169Z"/>
        <circle class="cls-2" cx="286.9012" cy="112.8976" r="6.206"/>
        <path class="cls-2"
              d="M274.4044,69.4557h-29.8929c-2.5103,0-4.7733-1.5121-5.7333-3.8309-.9612-2.3194-.4303-4.9884,1.3454-6.7635l14.9465-14.9465c2.4218-2.423,6.3539-2.423,8.7756,0,2.4242,2.4236,2.4242,6.3532,0,8.7769l-4.3515,4.3521h14.9101c3.4278,0,6.206,2.7788,6.206,6.206s-2.7781,6.206-6.206,6.206Z"/>
        <path class="cls-2"
              d="M348.7719,69.4557h-29.7887c-3.4278,0-6.206-2.7788-6.206-6.206s2.7781-6.206,6.206-6.206h14.8059l-4.2993-4.2999c-2.4242-2.4236-2.4242-6.3532,0-8.7769,2.4218-2.423,6.3539-2.423,8.7756,0l14.8943,14.8943c1.7757,1.7751,2.3066,4.4442,1.3454,6.7635-.96,2.3188-3.223,3.8309-5.7333,3.8309Z"/>
        <path class="cls-2"
              d="M311.5881,32.272c-1.5879,0-3.1769-.6061-4.3878-1.8176l-10.5586-10.558-10.5586,10.558c-2.4218,2.423-6.3539,2.423-8.7756,0-2.4242-2.4236-2.4242-6.3532,0-8.7769l14.9465-14.9465c2.4218-2.423,6.3539-2.423,8.7756,0l14.9465,14.9465c2.4242,2.4236,2.4242,6.3532,0,8.7769-1.2109,1.2115-2.8,1.8176-4.3878,1.8176Z"/>
        <path class="cls-2" d="M253.2519,75.0411v37.8565c0,3.4272,2.7781,6.206,6.206,6.206s6.206-2.7788,6.206-6.206v-37.8565h-12.412Z"/>
        <path class="cls-2" d="M327.7237,75.0411v37.8565c0,3.4272,2.7781,6.206,6.206,6.206s6.206-2.7788,6.206-6.206v-37.8565h-12.412Z"/>
    </g>
    <g>
        <path class="cls-1"
              d="M187.7778,160.9668c1.6494,1.5562,2.4736,3.8716,2.4736,6.9448,0,3.5991-1.2178,6.2798-3.6543,8.0415-2.4375,1.7627-5.8301,2.6431-10.1787,2.6431h-10.5156v-38.52h8.6035c4.4609,0,7.9014.8062,10.3193,2.418,2.418,1.6123,3.627,4.0117,3.627,7.1978,0,2.3618-.6465,4.2739-1.9404,5.7358-1.293,1.4624-3.0088,2.3813-5.1455,2.7554,2.624.3008,4.7607,1.2285,6.4111,2.7837ZM169.2769,142.8877v14.1147h7.7598c2.3994,0,4.3301-.6274,5.792-1.8838,1.4629-1.2559,2.1934-2.9893,2.1934-5.2017,0-2.5112-.8525-4.3105-2.5586-5.3984-1.7061-1.0869-4.2451-1.6309-7.6191-1.6309h-5.5674ZM186.7651,167.9116c0-2.7739-.8525-4.8359-2.5586-6.1855s-3.9639-2.0244-6.7764-2.0244h-8.1533v16.083h7.1416c6.8975,0,10.3467-2.624,10.3467-7.873Z"/>
        <path class="cls-1"
              d="M219.8862,178.5962h-2.8115l-.1689-5.23c-2.3252,3.8999-5.5303,5.8486-9.6162,5.8486-2.6621,0-4.7148-.7778-6.1572-2.334-1.4434-1.5552-2.165-3.7764-2.165-6.6636v-21.0312h3.2617v20.6938c0,2.2871.4775,3.9644,1.4336,5.0332.9561,1.0684,2.4082,1.6025,4.3584,1.6025,3.4111,0,6.2783-2.0054,8.6035-6.0171v-21.3125h3.2617v29.4102Z"/>
        <path class="cls-1"
              d="M250.8989,150.9292c1.4062,1.5742,2.1094,3.7871,2.1094,6.6357v21.0312h-3.2617v-20.5815c0-2.3618-.4688-4.0859-1.4062-5.1738-.9375-1.0864-2.3242-1.6304-4.1611-1.6304-1.875,0-3.5342.5156-4.9766,1.5464-1.4434,1.0312-2.8213,2.54-4.1328,4.5269v21.3125h-3.2617v-29.4102h2.8115l.3379,5.0044c1.1992-1.7612,2.623-3.1392,4.2734-4.1328,1.6494-.9932,3.5049-1.4902,5.5674-1.4902,2.6611,0,4.6953.7871,6.1006,2.3618Z"/>
        <path class="cls-1"
              d="M285.6245,137.208v41.3882h-2.8125l-.3936-4.4985c-2.0244,3.4116-4.9678,5.1172-8.8281,5.1172-3.4121,0-6.1016-1.3584-8.0703-4.0771-1.9678-2.7178-2.9521-6.4194-2.9521-11.106,0-3.0366.459-5.7168,1.3779-8.0415.918-2.3242,2.249-4.1421,3.9922-5.4546,1.7441-1.312,3.7959-1.9683,6.1582-1.9683,3.3359,0,6.0918,1.3311,8.2666,3.9927v-15.7456l3.2617.3936ZM278.8481,175.166c1.293-.8999,2.4639-2.2681,3.5146-4.105v-15.3521c-2.1006-2.9609-4.668-4.4424-7.7041-4.4424-2.6621,0-4.7715,1.106-6.3262,3.3179-1.5566,2.2124-2.3154,5.3423-2.2783,9.3911,0,4.0488.7119,7.1514,2.1377,9.3066,1.4238,2.1562,3.3926,3.2334,5.9043,3.2334,1.874,0,3.458-.4502,4.752-1.3496Z"/>
        <path class="cls-1"
              d="M298.6421,177.8091c-.9189-.937-1.3779-2.3242-1.3779-4.1616v-36.4395l3.2617-.3936v36.7207c0,1.9121.7871,2.8677,2.3613,2.8677.7871,0,1.4619-.1309,2.0244-.3936l.9004,2.418c-1.0508.5249-2.1748.7876-3.374.7876-1.6123,0-2.8779-.4692-3.7959-1.4058Z"/>
        <path class="cls-1"
              d="M333.9849,165.1562h-19.625c.1865,3.8237,1.0957,6.6636,2.7266,8.5195,1.6309,1.8555,3.7764,2.7837,6.4395,2.7837,1.5361,0,2.8955-.2339,4.0762-.7031,1.1816-.4683,2.4648-1.209,3.8525-2.2212l1.5186,2.0806c-1.4619,1.2002-2.9619,2.1001-4.499,2.6992-1.5381.5991-3.2432.8999-5.1172.8999-3.8994,0-6.9551-1.3306-9.166-3.9927-2.2129-2.6616-3.3184-6.3545-3.3184-11.0781,0-3.1113.4785-5.8389,1.4346-8.1821.9561-2.3423,2.3242-4.1611,4.1045-5.4546s3.8525-1.9399,6.2139-1.9399c3.749,0,6.5977,1.2651,8.5479,3.7959,1.9492,2.5303,2.9238,6.0078,2.9238,10.4312,0,.8252-.0371,1.6123-.1123,2.3618ZM330.8921,161.7822c0-3.2983-.6846-5.8765-2.0527-7.7319-1.3691-1.856-3.4023-2.7837-6.1016-2.7837-2.4365,0-4.4053.9375-5.9043,2.8115-1.5,1.875-2.3252,4.7236-2.4736,8.5479h16.5322v-.8438Z"/>
    </g>
</svg>
