<?xml version="1.0" encoding="UTF-8"?>
<!-- Dynamic SVG -->
<svg xmlns="http://www.w3.org/2000/svg" version="1.1" viewBox="0 0 100 100">
  <defs>
    <style>
      .dynamic-stroke-main {
        stroke: var(--ink-color, #000);
        stroke-width: 4.5px;
      }

      .dynamic-stroke-main, .dynamic-stroke-accent {
        fill: none;
        stroke-linecap: round;
        stroke-linejoin: round;
      }

      .dynamic-stroke-accent {
        stroke: var(--highlight-color, #000);
        stroke-width: 2px;
      }
    </style>
  </defs>
  <path class="dynamic-stroke-main" d="M69.747,64.112c8.35-6.397,13.507-16.753,12.664-28.264-1.169-15.965-14.124-28.864-30.094-29.971-18.997-1.317-34.817,13.704-34.817,32.42,0,11.877,6.371,22.266,15.882,27.936h0s0,4.957,0,4.957c0,2.47,2.216,4.35,4.653,3.946l23.929-3.96c2.437-.403,4.653,1.476,4.653,3.946v1.421c0,1.946-1.401,3.61-3.319,3.942l-20.495,3.541c-1.918.331-3.319,1.995-3.319,3.942v1.564c0,3.314,2.686,6,6,6h9.031c3.314,0,6-2.686,6-6h0"/>
  <path class="dynamic-stroke-accent stroke-color-animation" d="M52.39,62.968l8.962-23.347c1.4.537,2.97-.162,3.507-1.561s-.162-2.97-1.561-3.507c-1.032-.396-2.158-.12-2.893.614,0,0-1.574,1.574-1.574,1.574l-3.147-3.147-3.147,3.147s-3.147-3.147-3.147-3.147l-3.147,3.147s-3.147-3.147-3.147-3.147l-3.147,3.147s-1.574-1.574-1.574-1.574c-.735-.734-1.86-1.011-2.893-.614-1.4.537-2.099,2.107-1.561,3.507s2.107,2.099,3.507,1.561l8.962,23.347"/>
</svg>
