<?xml version="1.0" encoding="UTF-8"?>
<!-- Dynamic SVG -->
<svg xmlns="http://www.w3.org/2000/svg" version="1.1" viewBox="0 0 100 100">
    <defs>
        <style>
            .dynamic-stroke-main {
                stroke: var(--ink-color, #000);
                stroke-width: 4.5px;
            }

            .dynamic-stroke-main, .dynamic-stroke-accent {
                fill: none;
                stroke-linecap: round;
                stroke-linejoin: round;
            }

            .dynamic-stroke-accent {
                stroke: var(--highlight-color, #000);
                stroke-width: 2px;
            }
        </style>
    </defs>
    <path class="dynamic-stroke-main"
          d="M8.1577,38.7595v12.464h47.6675c2.8067,0,5.082,2.2753,5.082,5.082v8.2931c0,2.6541,2.1516,4.8057,4.8057,4.8057h10.3886c2.6541,0,4.8057-2.1516,4.8057-4.8057v-9.4543c0-13.2111-10.7097-23.9209-23.9209-23.9209h-4.4538c-1.8639,0-3.3749-1.511-3.3749-3.3749h0c0-1.8639-1.511-3.3749-3.3749-3.3749h-6.8752c-1.8639,0-3.3749,1.511-3.3749,3.3749h0c0,1.8639-1.511,3.3749-3.3749,3.3749H8.1577"/>
    <path class="dynamic-stroke-accent stroke-color-animation"
          d="M40.1265,16.4955c-.7405-.3871-1.374-.9514-1.8468-1.6364-.5618-.8141-1.4407-1.3513-2.4298-1.3513h-6.8262c-.9712,0-1.8544.5075-2.3982,1.3121-1.0872,1.6088-3.0526,2.5679-5.2236,2.1542-1.9727-.3759-3.586-1.9464-4.001-3.9113-.7008-3.3183,1.8114-6.2426,5.0068-6.2426,1.7579,0,3.2956.891,4.2125,2.2425.5472.8066,1.4295,1.32,2.4042,1.32h6.8292c.9747,0,1.8569-.5134,2.4042-1.3199.917-1.3515,2.4546-2.2425,4.2125-2.2425s3.2955.891,4.2125,2.2425c.5472.8066,1.4294,1.3199,2.4042,1.3199h6.8298c.9712,0,1.8543-.5074,2.3981-1.3121,1.0873-1.609,3.0532-2.5682,5.2244-2.1541,1.9726.3762,3.5856,1.9468,4.0004,3.9117.7004,3.3182-1.8119,6.242-5.007,6.242-1.7579,0-3.2956-.891-4.2125-2.2425-.5472-.8066-1.4295-1.32-2.4042-1.32h-6.8254c-.9891,0-1.868.5372-2.4298,1.3513-.4728.685-1.1062,1.2493-1.8468,1.6364v3.014h-4.6875"/>
    <path class="dynamic-stroke-accent stroke-color-animation"
          d="M73.1027,79.9579l3.6681,7.5778.0013-.0006c.3909.8061.6101,1.7109.6101,2.667,0,3.3799-2.7399,6.1198-6.1198,6.1198s-6.1198-2.7399-6.1198-6.1198c0-.956.6114-2.6664.6114-2.6664l5.5084-11.3797"/>
</svg>
