<?xml version="1.0" encoding="UTF-8"?>
<svg id="Layer_1" data-name="Layer 1" xmlns="http://www.w3.org/2000/svg" viewBox="0 0 600 124.3123">
    <defs>
        <style>
            .cls-1 {
                fill: #303030;
            }
            
            .cls-2 {
                fill: #f46023;
            }
        </style>
    </defs>
    <g>
        <path class="cls-1" d="M31.4353,94.6066v-24.537H9.4063v24.537H2.1888v-52.3406h7.2175v21.8783h22.029v-21.8783h7.2175v52.3406h-7.2175Z"/>
        <path class="cls-1"
              d="M81.6119,59.2821c3.1147,3.7484,4.6714,8.8382,4.6714,15.2693,0,4.1533-.7101,7.8125-2.1265,10.977-1.4189,3.1657-3.4703,5.6214-6.1542,7.3688s-5.8749,2.6212-9.5716,2.6212c-5.6214,0-10.0023-1.8736-13.1416-5.622-3.1405-3.7472-4.7095-8.837-4.7095-15.2687,0-4.152.7076-7.8119,2.1265-10.9776,1.4177-3.1645,3.4691-5.6214,6.153-7.3682,2.6839-1.7475,5.8995-2.6212,9.6479-2.6212,5.6214,0,9.99,1.8742,13.1047,5.6214ZM58.1,74.6277c0,10.1789,3.4432,15.2687,10.3309,15.2687s10.3321-5.1144,10.3321-15.345c0-10.1795-3.4186-15.2693-10.2558-15.2693-6.9394,0-10.4072,5.1162-10.4072,15.3456Z"/>
        <path class="cls-1"
              d="M127.6081,94.6066h-6.0016l-.5316-6.2293c-1.5198,2.4821-3.266,4.2923-5.2411,5.4319-1.9751,1.1395-4.3809,1.7093-7.2175,1.7093-3.4937,0-6.2293-1.0639-8.2044-3.191s-2.9621-5.1396-2.9621-9.04v-28.7149h6.9886v27.9556c0,2.7344.4812,4.6714,1.4435,5.8109.9611,1.1395,2.5313,1.7093,4.7095,1.7093,3.8998,0,7.2421-2.3037,10.0282-6.9129v-28.5629h6.9886v40.0339Z"/>
        <path class="cls-1"
              d="M160.2731,54.8003c2.1769.7599,4.2542,1.8994,6.2293,3.4186l-2.9633,4.4062c-1.8225-1.1648-3.5577-2.025-5.203-2.583-1.6465-.5568-3.3805-.8356-5.2042-.8356-2.2791,0-4.077.4689-5.3937,1.4053-1.3167.9377-1.9751,2.2157-1.9751,3.8364s.6202,2.8864,1.8619,3.7983c1.2404.9113,3.4814,1.7979,6.7228,2.6587,4.456,1.1143,7.786,2.6341,9.9888,4.5581,2.204,1.9253,3.3054,4.5575,3.3054,7.9005,0,3.9502-1.5333,6.964-4.5963,9.04-3.0642,2.0773-6.7991,3.1147-11.2046,3.1147-6.0779,0-11.1173-1.7475-15.1179-5.2417l3.7226-4.2542c3.3928,2.583,7.1412,3.8739,11.2428,3.8739,2.6335,0,4.7218-.5433,6.2675-1.633,1.5444-1.0885,2.3172-2.5701,2.3172-4.4443,0-1.3672-.2793-2.4686-.8356-3.3042-.5587-.8356-1.5198-1.569-2.887-2.2034-1.3672-.6325-3.3682-1.3032-6.0016-2.0126-4.2542-1.1137-7.3307-2.6076-9.2295-4.4825-1.8988-1.873-2.8488-4.2536-2.8488-7.1406,0-2.076.6202-3.9619,1.8607-5.6595,1.2404-1.6958,2.9633-3.0125,5.1661-3.9502,2.2028-.9365,4.6726-1.4053,7.407-1.4053s5.1907.3796,7.3688,1.1395Z"/>
        <path class="cls-1"
              d="M207.5996,76.9825h-25.5251c.304,4.4062,1.4177,7.6476,3.3423,9.7236,1.9247,2.0773,4.4068,3.1147,7.4451,3.1147,1.9247,0,3.6967-.2775,5.3174-.8356,1.6207-.5568,3.3165-1.4435,5.0898-2.6587l3.0384,4.1779c-4.2542,3.3423-8.9132,5.0141-13.9772,5.0141-5.5722,0-9.9137-1.8238-13.0284-5.47s-4.6714-8.6597-4.6714-15.041c0-4.152.6707-7.8365,2.0133-11.0533,1.3401-3.2156,3.266-5.7352,5.7728-7.5584,2.5067-1.8231,5.4565-2.735,8.8505-2.735,5.3174,0,9.3932,1.7475,12.2297,5.2417,2.8365,3.4943,4.2542,8.3312,4.2542,14.5094,0,1.166-.0505,2.3554-.1514,3.5706ZM200.8387,71.3611c0-3.9502-.7864-6.9627-2.3554-9.04-1.5702-2.076-3.9256-3.1147-7.0649-3.1147-5.7235,0-8.8382,4.2044-9.344,12.61h18.7642v-.4553Z"/>
    </g>
    <g>
        <path class="cls-1" d="M259.4579,8.6371c-3.4278,0-6.206,2.7788-6.206,6.206v23.4451c3.7923-2.3535,8.6197-2.3535,12.412,0V14.8431c0-3.4272-2.7781-6.206-6.206-6.206Z"/>
        <path class="cls-1" d="M340.1356,38.3707V14.8431c0-3.4272-2.7781-6.206-6.206-6.206s-6.206,2.7788-6.206,6.206v23.466c3.8017-2.3328,8.6292-2.3138,12.412.0616Z"/>
        <path class="cls-1" d="M296.6416,27.7951l-6.1539,6.1539v37.0474c0,3.4272,2.7781,6.206,6.206,6.206s6.206-2.7788,6.206-6.206v-36.9431l-6.2581-6.2581Z"/>
        <path class="cls-1"
              d="M306.4864,119.1035c-1.5891,0-3.1769-.6061-4.389-1.8182-2.423-2.4242-2.423-6.3532.0012-8.7769,1.4424-1.4424,2.2375-3.3612,2.2375-5.4036,0-4.2145-3.4278-7.6429-7.6423-7.6429s-7.6423,3.4284-7.6423,7.6429c0,2.0424.7951,3.9612,2.2375,5.4036,2.4242,2.4236,2.4242,6.3526.0012,8.7769-2.4242,2.4242-6.3526,2.4242-8.7769.0012-3.7878-3.7872-5.8739-8.8235-5.8739-14.1816,0-11.058,8.9962-20.0549,20.0543-20.0549s20.0543,8.9968,20.0543,20.0549c0,5.3581-2.086,10.3944-5.8739,14.1816-1.2121,1.2109-2.8,1.8169-4.3878,1.8169Z"/>
        <circle class="cls-2" cx="286.9012" cy="112.8976" r="6.206"/>
        <path class="cls-2"
              d="M274.4044,69.4557h-29.8929c-2.5103,0-4.7733-1.5121-5.7333-3.8309-.9612-2.3194-.4303-4.9884,1.3454-6.7635l14.9465-14.9465c2.4218-2.423,6.3539-2.423,8.7756,0,2.4242,2.4236,2.4242,6.3532,0,8.7769l-4.3515,4.3521h14.9101c3.4278,0,6.206,2.7788,6.206,6.206s-2.7781,6.206-6.206,6.206Z"/>
        <path class="cls-2"
              d="M348.7719,69.4557h-29.7887c-3.4278,0-6.206-2.7788-6.206-6.206s2.7781-6.206,6.206-6.206h14.8059l-4.2993-4.2999c-2.4242-2.4236-2.4242-6.3532,0-8.7769,2.4218-2.423,6.3539-2.423,8.7756,0l14.8943,14.8943c1.7757,1.7751,2.3066,4.4442,1.3454,6.7635-.96,2.3188-3.223,3.8309-5.7333,3.8309Z"/>
        <path class="cls-2"
              d="M311.5881,32.272c-1.5879,0-3.1769-.6061-4.3878-1.8176l-10.5586-10.558-10.5586,10.558c-2.4218,2.423-6.3539,2.423-8.7756,0-2.4242-2.4236-2.4242-6.3532,0-8.7769l14.9465-14.9465c2.4218-2.423,6.3539-2.423,8.7756,0l14.9465,14.9465c2.4242,2.4236,2.4242,6.3532,0,8.7769-1.2109,1.2115-2.8,1.8176-4.3878,1.8176Z"/>
        <path class="cls-2" d="M253.2519,75.0411v37.8565c0,3.4272,2.7781,6.206,6.206,6.206s6.206-2.7788,6.206-6.206v-37.8565h-12.412Z"/>
        <path class="cls-2" d="M327.7237,75.0411v37.8565c0,3.4272,2.7781,6.206,6.206,6.206s6.206-2.7788,6.206-6.206v-37.8565h-12.412Z"/>
    </g>
    <g>
        <path class="cls-1"
              d="M453.153,94.6066h-6.9886l-1.8225-23.6257c-.7605-9.2677-1.1912-16.3824-1.2921-21.346l-11.3191,39.0464h-6.7609l-11.927-39.1227c0,6.3314-.3298,13.6492-.9869,21.9545l-1.7475,23.0935h-6.8372l4.3305-52.3406h9.7242l11.0139,38.0588,10.4835-38.0588h9.8005l4.3293,52.3406Z"/>
        <path class="cls-1"
              d="M472.0698,36.7203c.9106.9119,1.3672,2.0514,1.3672,3.4186s-.4566,2.495-1.3672,3.3805c-.9119.8866-2.1031,1.3297-3.5712,1.3297-1.4177,0-2.583-.443-3.4937-1.3297-.9119-.8854-1.3672-2.0133-1.3672-3.3805s.4553-2.5067,1.3672-3.4186c.9106-.9113,2.076-1.3672,3.4937-1.3672,1.4681,0,2.6593.4559,3.5712,1.3672ZM472.0698,54.5726v40.0339h-6.9898v-40.0339h6.9898Z"/>
        <path class="cls-1"
              d="M500.5624,74.9352s3.3604,11.0262,15.1876,19.6713h-8.4321c-9.0657-7.3325-11.8438-16.9405-11.8438-16.9405,0,0-11.2485,5.885-7.9073,16.9405h-7.9005c-2.3638-12.373,15.0155-22.4016,15.0155-22.4016,0,0,.2625-8.8209-13.4207-17.6323h8.2044c9.2067,6.7112,9.9444,14.6614,9.9444,14.6614,0,0,9.8684-4.3798,6.8435-14.6614h7.9005c2.9478,12.1718-13.5915,20.3626-13.5915,20.3626Z"/>
    </g>
</svg>
