<?xml version="1.0" encoding="UTF-8"?>
<svg id="Layer_1" data-name="Layer 1" xmlns="http://www.w3.org/2000/svg" viewBox="0 0 600 181.2914">
    <defs>
        <style>
            .cls-1 {
                fill: #303030;
            }
            
            .cls-2 {
                fill: #f46023;
            }
        </style>
    </defs>
    <g>
        <path class="cls-1"
              d="M214.5518,140.3291c1.4805.5815,2.9707,1.4717,4.4707,2.6709l-1.7998,2.2495c-1.3125-1.0493-2.5684-1.7993-3.7676-2.2495-1.2002-.4497-2.5684-.6748-4.1055-.6748-3.6367,0-6.5889,1.3877-8.8564,4.1616-2.2686,2.7744-3.4023,7.0483-3.4023,12.8213,0,3.749.5244,6.8979,1.5752,9.4473,1.0488,2.5498,2.4824,4.4336,4.3018,5.6514,1.8174,1.2188,3.8887,1.8276,6.2139,1.8276,1.8359,0,3.3926-.2715,4.667-.8154,1.2744-.543,2.5674-1.3398,3.8799-2.3901l1.7441,2.1934c-2.8125,2.6621-6.2803,3.9927-10.4033,3.9927-3,0-5.6709-.7681-8.0137-2.3057-2.3438-1.5366-4.1807-3.7959-5.5107-6.7764-1.3311-2.98-1.9961-6.5879-1.9961-10.8247s.6924-7.8447,2.0801-10.8252c1.3867-2.9805,3.252-5.2295,5.5957-6.748,2.3418-1.5186,4.9766-2.2773,7.9004-2.2773,2.1367,0,3.9453.2905,5.4268.8716Z"/>
        <path class="cls-1"
              d="M244.8613,152.5879c2.1934,2.6807,3.29,6.4204,3.29,11.2188,0,4.7612-1.1162,8.5195-3.3457,11.2749-2.2314,2.7554-5.2773,4.1333-9.1387,4.1333-3.8994,0-6.9443-1.3584-9.1377-4.0771-2.1934-2.7178-3.29-6.457-3.29-11.2188,0-3.1113.5068-5.8286,1.5186-8.1538,1.0127-2.3237,2.4551-4.105,4.3301-5.3423,1.874-1.2368,4.0859-1.8555,6.6357-1.8555,3.8984,0,6.9443,1.3408,9.1377,4.0205ZM229.0879,154.5278c-1.5742,2.1372-2.3613,5.2676-2.3613,9.3911,0,4.0869.7773,7.1982,2.333,9.335s3.7578,3.2056,6.6074,3.2056,5.0703-1.0688,6.6641-3.2056c1.5928-2.1367,2.3896-5.2861,2.3896-9.4473,0-4.0859-.7783-7.1885-2.333-9.3066-1.5566-2.1177-3.7773-3.1772-6.6641-3.1772-2.8496,0-5.0615,1.0684-6.6357,3.2051Z"/>
        <path class="cls-1"
              d="M291.9854,150.9854c1.3682,1.6123,2.0527,3.8057,2.0527,6.5796v21.0312h-3.2617v-20.5815c0-2.3242-.4414-4.0391-1.3213-5.1455-.8818-1.1055-2.1094-1.6587-3.6836-1.6587-1.6504,0-3.1309.5254-4.4424,1.5742-1.3125,1.0503-2.5869,2.5498-3.8242,4.499v21.3125h-3.2617v-20.5815c0-2.3242-.4404-4.0391-1.3213-5.1455-.8809-1.1055-2.1084-1.6587-3.6836-1.6587-1.6865,0-3.1865.5254-4.498,1.5742-1.3125,1.0503-2.5684,2.5498-3.7676,4.499v21.3125h-3.2617v-29.4102h2.8115l.2812,5.0044c1.125-1.7612,2.4551-3.1392,3.9922-4.1328,1.5371-.9932,3.2246-1.4902,5.0615-1.4902,1.874,0,3.4482.5156,4.7236,1.5464,1.2744,1.0312,2.1367,2.4653,2.5869,4.3018,1.1611-1.8364,2.5205-3.2705,4.0771-4.3018,1.5547-1.0308,3.2695-1.5464,5.1445-1.5464,2.3623,0,4.2266.8066,5.5957,2.418Z"/>
        <path class="cls-1"
              d="M339.9531,150.9854c1.3682,1.6123,2.0527,3.8057,2.0527,6.5796v21.0312h-3.2617v-20.5815c0-2.3242-.4414-4.0391-1.3213-5.1455-.8818-1.1055-2.1094-1.6587-3.6836-1.6587-1.6504,0-3.1309.5254-4.4424,1.5742-1.3125,1.0503-2.5869,2.5498-3.8242,4.499v21.3125h-3.2617v-20.5815c0-2.3242-.4404-4.0391-1.3213-5.1455-.8809-1.1055-2.1084-1.6587-3.6836-1.6587-1.6865,0-3.1865.5254-4.498,1.5742-1.3125,1.0503-2.5684,2.5498-3.7676,4.499v21.3125h-3.2617v-29.4102h2.8115l.2812,5.0044c1.125-1.7612,2.4551-3.1392,3.9922-4.1328,1.5371-.9932,3.2246-1.4902,5.0615-1.4902,1.874,0,3.4482.5156,4.7236,1.5464,1.2744,1.0312,2.1367,2.4653,2.5869,4.3018,1.1611-1.8364,2.5205-3.2705,4.0771-4.3018,1.5547-1.0308,3.2695-1.5464,5.1445-1.5464,2.3623,0,4.2266.8066,5.5957,2.418Z"/>
        <path class="cls-1"
              d="M372.9053,152.5879c2.1934,2.6807,3.29,6.4204,3.29,11.2188,0,4.7612-1.1162,8.5195-3.3457,11.2749-2.2314,2.7554-5.2773,4.1333-9.1387,4.1333-3.8994,0-6.9443-1.3584-9.1377-4.0771-2.1934-2.7178-3.29-6.457-3.29-11.2188,0-3.1113.5068-5.8286,1.5186-8.1538,1.0127-2.3237,2.4551-4.105,4.3301-5.3423,1.874-1.2368,4.0859-1.8555,6.6357-1.8555,3.8984,0,6.9443,1.3408,9.1377,4.0205ZM357.1318,154.5278c-1.5742,2.1372-2.3613,5.2676-2.3613,9.3911,0,4.0869.7773,7.1982,2.333,9.335s3.7578,3.2056,6.6074,3.2056,5.0703-1.0688,6.6641-3.2056c1.5928-2.1367,2.3896-5.2861,2.3896-9.4473,0-4.0859-.7783-7.1885-2.333-9.3066-1.5566-2.1177-3.7773-3.1772-6.6641-3.1772-2.8496,0-5.0615,1.0684-6.6357,3.2051Z"/>
        <path class="cls-1"
              d="M404.8467,150.9292c1.4062,1.5742,2.1094,3.7871,2.1094,6.6357v21.0312h-3.2617v-20.5815c0-2.3618-.4688-4.0859-1.4062-5.1738-.9375-1.0864-2.3242-1.6304-4.1611-1.6304-1.875,0-3.5342.5156-4.9766,1.5464-1.4434,1.0312-2.8213,2.54-4.1328,4.5269v21.3125h-3.2617v-29.4102h2.8115l.3379,5.0044c1.1992-1.7612,2.623-3.1392,4.2734-4.1328,1.6494-.9932,3.5049-1.4902,5.5674-1.4902,2.6611,0,4.6953.7871,6.1006,2.3618Z"/>
    </g>
    <g>
        <path class="cls-1" d="M31.4353,94.6066v-24.537H9.4063v24.537H2.1888v-52.3406h7.2175v21.8783h22.029v-21.8783h7.2175v52.3406h-7.2175Z"/>
        <path class="cls-1"
              d="M81.6119,59.2821c3.1147,3.7484,4.6714,8.8382,4.6714,15.2693,0,4.1533-.7101,7.8125-2.1265,10.977-1.4189,3.1657-3.4703,5.6214-6.1542,7.3688s-5.8749,2.6212-9.5716,2.6212c-5.6214,0-10.0023-1.8736-13.1416-5.622-3.1405-3.7472-4.7095-8.837-4.7095-15.2687,0-4.152.7076-7.8119,2.1265-10.9776,1.4177-3.1645,3.4691-5.6214,6.153-7.3682,2.6839-1.7475,5.8995-2.6212,9.6479-2.6212,5.6214,0,9.99,1.8742,13.1047,5.6214ZM58.1,74.6277c0,10.1789,3.4432,15.2687,10.3309,15.2687s10.3321-5.1144,10.3321-15.345c0-10.1795-3.4186-15.2693-10.2558-15.2693-6.9394,0-10.4072,5.1162-10.4072,15.3456Z"/>
        <path class="cls-1"
              d="M127.6081,94.6066h-6.0016l-.5316-6.2293c-1.5198,2.4821-3.266,4.2923-5.2411,5.4319-1.9751,1.1395-4.3809,1.7093-7.2175,1.7093-3.4937,0-6.2293-1.0639-8.2044-3.191s-2.9621-5.1396-2.9621-9.04v-28.7149h6.9886v27.9556c0,2.7344.4812,4.6714,1.4435,5.8109.9611,1.1395,2.5313,1.7093,4.7095,1.7093,3.8998,0,7.2421-2.3037,10.0282-6.9129v-28.5629h6.9886v40.0339Z"/>
        <path class="cls-1"
              d="M160.2731,54.8003c2.1769.7599,4.2542,1.8994,6.2293,3.4186l-2.9633,4.4062c-1.8225-1.1648-3.5577-2.025-5.203-2.583-1.6465-.5568-3.3805-.8356-5.2042-.8356-2.2791,0-4.077.4689-5.3937,1.4053-1.3167.9377-1.9751,2.2157-1.9751,3.8364s.6202,2.8864,1.8619,3.7983c1.2404.9113,3.4814,1.7979,6.7228,2.6587,4.456,1.1143,7.786,2.6341,9.9888,4.5581,2.204,1.9253,3.3054,4.5575,3.3054,7.9005,0,3.9502-1.5333,6.964-4.5963,9.04-3.0642,2.0773-6.7991,3.1147-11.2046,3.1147-6.0779,0-11.1173-1.7475-15.1179-5.2417l3.7226-4.2542c3.3928,2.583,7.1412,3.8739,11.2428,3.8739,2.6335,0,4.7218-.5433,6.2675-1.633,1.5444-1.0885,2.3172-2.5701,2.3172-4.4443,0-1.3672-.2793-2.4686-.8356-3.3042-.5587-.8356-1.5198-1.569-2.887-2.2034-1.3672-.6325-3.3682-1.3032-6.0016-2.0126-4.2542-1.1137-7.3307-2.6076-9.2295-4.4825-1.8988-1.873-2.8488-4.2536-2.8488-7.1406,0-2.076.6202-3.9619,1.8607-5.6595,1.2404-1.6958,2.9633-3.0125,5.1661-3.9502,2.2028-.9365,4.6726-1.4053,7.407-1.4053s5.1907.3796,7.3688,1.1395Z"/>
        <path class="cls-1"
              d="M207.5996,76.9825h-25.5251c.304,4.4062,1.4177,7.6476,3.3423,9.7236,1.9247,2.0773,4.4068,3.1147,7.4451,3.1147,1.9247,0,3.6967-.2775,5.3174-.8356,1.6207-.5568,3.3165-1.4435,5.0898-2.6587l3.0384,4.1779c-4.2542,3.3423-8.9132,5.0141-13.9772,5.0141-5.5722,0-9.9137-1.8238-13.0284-5.47s-4.6714-8.6597-4.6714-15.041c0-4.152.6707-7.8365,2.0133-11.0533,1.3401-3.2156,3.266-5.7352,5.7728-7.5584,2.5067-1.8231,5.4565-2.735,8.8505-2.735,5.3174,0,9.3932,1.7475,12.2297,5.2417,2.8365,3.4943,4.2542,8.3312,4.2542,14.5094,0,1.166-.0505,2.3554-.1514,3.5706ZM200.8387,71.3611c0-3.9502-.7864-6.9627-2.3554-9.04-1.5702-2.076-3.9256-3.1147-7.0649-3.1147-5.7235,0-8.8382,4.2044-9.344,12.61h18.7642v-.4553Z"/>
    </g>
    <g>
        <path class="cls-1" d="M259.4579,8.6371c-3.4278,0-6.206,2.7788-6.206,6.206v23.4451c3.7923-2.3535,8.6197-2.3535,12.412,0V14.8431c0-3.4272-2.7781-6.206-6.206-6.206Z"/>
        <path class="cls-1" d="M340.1356,38.3707V14.8431c0-3.4272-2.7781-6.206-6.206-6.206s-6.206,2.7788-6.206,6.206v23.466c3.8017-2.3328,8.6292-2.3138,12.412.0616Z"/>
        <path class="cls-1" d="M296.6416,27.7951l-6.1539,6.1539v37.0474c0,3.4272,2.7781,6.206,6.206,6.206s6.206-2.7788,6.206-6.206v-36.9431l-6.2581-6.2581Z"/>
        <path class="cls-1"
              d="M306.4864,119.1035c-1.5891,0-3.1769-.6061-4.389-1.8182-2.423-2.4242-2.423-6.3532.0012-8.7769,1.4424-1.4424,2.2375-3.3612,2.2375-5.4036,0-4.2145-3.4278-7.6429-7.6423-7.6429s-7.6423,3.4284-7.6423,7.6429c0,2.0424.7951,3.9612,2.2375,5.4036,2.4242,2.4236,2.4242,6.3526.0012,8.7769-2.4242,2.4242-6.3526,2.4242-8.7769.0012-3.7878-3.7872-5.8739-8.8235-5.8739-14.1816,0-11.058,8.9962-20.0549,20.0543-20.0549s20.0543,8.9968,20.0543,20.0549c0,5.3581-2.086,10.3944-5.8739,14.1816-1.2121,1.2109-2.8,1.8169-4.3878,1.8169Z"/>
        <circle class="cls-2" cx="286.9012" cy="112.8976" r="6.206"/>
        <path class="cls-2"
              d="M274.4044,69.4557h-29.8929c-2.5103,0-4.7733-1.5121-5.7333-3.8309-.9612-2.3194-.4303-4.9884,1.3454-6.7635l14.9465-14.9465c2.4218-2.423,6.3539-2.423,8.7756,0,2.4242,2.4236,2.4242,6.3532,0,8.7769l-4.3515,4.3521h14.9101c3.4278,0,6.206,2.7788,6.206,6.206s-2.7781,6.206-6.206,6.206Z"/>
        <path class="cls-2"
              d="M348.7719,69.4557h-29.7887c-3.4278,0-6.206-2.7788-6.206-6.206s2.7781-6.206,6.206-6.206h14.8059l-4.2993-4.2999c-2.4242-2.4236-2.4242-6.3532,0-8.7769,2.4218-2.423,6.3539-2.423,8.7756,0l14.8943,14.8943c1.7757,1.7751,2.3066,4.4442,1.3454,6.7635-.96,2.3188-3.223,3.8309-5.7333,3.8309Z"/>
        <path class="cls-2"
              d="M311.5881,32.272c-1.5879,0-3.1769-.6061-4.3878-1.8176l-10.5586-10.558-10.5586,10.558c-2.4218,2.423-6.3539,2.423-8.7756,0-2.4242-2.4236-2.4242-6.3532,0-8.7769l14.9465-14.9465c2.4218-2.423,6.3539-2.423,8.7756,0l14.9465,14.9465c2.4242,2.4236,2.4242,6.3532,0,8.7769-1.2109,1.2115-2.8,1.8176-4.3878,1.8176Z"/>
        <path class="cls-2" d="M253.2519,75.0411v37.8565c0,3.4272,2.7781,6.206,6.206,6.206s6.206-2.7788,6.206-6.206v-37.8565h-12.412Z"/>
        <path class="cls-2" d="M327.7237,75.0411v37.8565c0,3.4272,2.7781,6.206,6.206,6.206s6.206-2.7788,6.206-6.206v-37.8565h-12.412Z"/>
    </g>
    <g>
        <path class="cls-1"
              d="M453.153,94.6066h-6.9886l-1.8225-23.6257c-.7605-9.2677-1.1912-16.3824-1.2921-21.346l-11.3191,39.0464h-6.7609l-11.927-39.1227c0,6.3314-.3298,13.6492-.9869,21.9545l-1.7475,23.0935h-6.8372l4.3305-52.3406h9.7242l11.0139,38.0588,10.4835-38.0588h9.8005l4.3293,52.3406Z"/>
        <path class="cls-1"
              d="M472.0698,36.7203c.9106.9119,1.3672,2.0514,1.3672,3.4186s-.4566,2.495-1.3672,3.3805c-.9119.8866-2.1031,1.3297-3.5712,1.3297-1.4177,0-2.583-.443-3.4937-1.3297-.9119-.8854-1.3672-2.0133-1.3672-3.3805s.4553-2.5067,1.3672-3.4186c.9106-.9113,2.076-1.3672,3.4937-1.3672,1.4681,0,2.6593.4559,3.5712,1.3672ZM472.0698,54.5726v40.0339h-6.9898v-40.0339h6.9898Z"/>
        <path class="cls-1"
              d="M500.5624,74.9352s3.3604,11.0262,15.1876,19.6713h-8.4321c-9.0657-7.3325-11.8438-16.9405-11.8438-16.9405,0,0-11.2485,5.885-7.9073,16.9405h-7.9005c-2.3638-12.373,15.0155-22.4016,15.0155-22.4016,0,0,.2625-8.8209-13.4207-17.6323h8.2044c9.2067,6.7112,9.9444,14.6614,9.9444,14.6614,0,0,9.8684-4.3798,6.8435-14.6614h7.9005c2.9478,12.1718-13.5915,20.3626-13.5915,20.3626Z"/>
    </g>
</svg>
