<?xml version="1.0" encoding="UTF-8"?>
<!-- Dynamic SVG -->
<svg id="Layer_1" data-name="Layer 1" xmlns="http://www.w3.org/2000/svg" viewBox="0 0 100 100">
    <defs>
        <style>

            .stroked-icon-small-masked {
                mask: url(#stroked-icon-small-mask);
            }

            .stroked-icon-accent {
                stroke: var(--highlight-color, #f46023);
            }

            .stroked-icon-stroke {
                fill: none;
                stroke-linecap: round;
                stroke-linejoin: round;
            }

            .stroked-icon-small-stroke {
                stroke-width: 10px;
            }

            .stroked-icon-mask-stroke {
                stroke: #000;
            }

            .stroked-icon-small-mask-stroke, .stroked-icon-small-mask-correction {
                stroke-width: 22px;
            }

            .stroked-icon-mask-back {
                fill: #fff;
            }


            .stroked-icon-accent-fill {
                fill: var(--highlight-color, #f46023);
            }

            .stroked-icon-ink {
                stroke: var(--ink-color, #eeeeee);
            }


        </style>
        <mask id="stroked-icon-small-mask" x="-1.542" y="-1.5" width="103" height="101.5" maskUnits="userSpaceOnUse">
            <g>
                <rect class="stroked-icon-mask-back" x="0" width="100" height="100"/>
                <polyline class="stroked-icon-small-mask-stroke stroked-icon-stroke stroked-icon-mask-stroke" points="32.042 50 7.958 50 20 37.958"/>
                <polyline class="stroked-icon-small-mask-stroke stroked-icon-stroke stroked-icon-mask-stroke" points="79.958 38 91.958 50 67.958 50"/>
                <polyline class="stroked-icon-small-mask-stroke stroked-icon-stroke stroked-icon-mask-stroke" points="37.916 20.042 49.958 8 62 20.042"/>
            </g>
        </mask>
    </defs>
    <g class="stroked-icon-small-masked">
        <g>
            <line class="stroked-icon-small-stroke stroked-icon-stroke stroked-icon-accent" x1="20" y1="52.1664" x2="20" y2="90"/>
            <line class="stroked-icon-ink stroked-icon-small-stroke stroked-icon-stroke" x1="20" y1="11" x2="20" y2="52.1664"/>
            <line class="stroked-icon-ink stroked-icon-small-stroke stroked-icon-stroke" x1="50" y1="14.5" x2="50" y2="56.241"/>
            <line class="stroked-icon-small-stroke stroked-icon-stroke stroked-icon-accent" x1="80" y1="52.1664" x2="80" y2="90"/>
            <line class="stroked-icon-ink stroked-icon-small-stroke stroked-icon-stroke" x1="80" y1="11" x2="80" y2="52.1664"/>
        </g>
    </g>
    <path class="stroked-icon-ink stroked-icon-small-stroke stroked-icon-stroke"
          d="M57.8896,90c2.0191-2.0191,3.268-4.8085,3.268-7.8896,0-6.1622-4.9954-11.1576-11.1576-11.1576s-11.1576,4.9954-11.1576,11.1576c0,3.0811,1.2489,5.8705,3.268,7.8896"/>
    <circle class="stroked-icon-accent-fill" cx="42.1104" cy="90" r="5"/>
    <polyline class="stroked-icon-small-stroke stroked-icon-stroke stroked-icon-accent" points="32.042 50 7.958 50 20 37.958"/>
    <polyline class="stroked-icon-small-stroke stroked-icon-stroke stroked-icon-accent" points="79.958 38 91.958 50 67.958 50"/>
    <polyline class="stroked-icon-small-stroke stroked-icon-stroke stroked-icon-accent" points="37.916 20.042 49.958 8 62 20.042"/>
</svg>
