<?xml version="1.0" encoding="UTF-8"?>
<svg id="Layer_1" data-name="Layer 1" xmlns="http://www.w3.org/2000/svg" viewBox="0 0 100 100">
  <defs>
    <style>
      .cls-1 {
        fill: #303030;
      }

      .cls-2 {
        fill: #f46023;
      }
    </style>
  </defs>
  <path class="cls-1" d="M86,32.6608V11c0-2.209-1.791-4-4-4s-4,1.791-4,4v21.6608c2.4371-1.54,5.5629-1.54,8,0Z"/>
  <path class="cls-1" d="M50,17.6064l-4,4.0004v34.6344c0,2.209,1.791,4,4,4s4-1.791,4-4V21.6068l-4-4.0004Z"/>
  <path class="cls-1" d="M22,32.6608V11c0-2.209-1.791-4-4-4s-4,1.791-4,4v21.6608c2.4371-1.54,5.5629-1.54,8,0Z"/>
  <path class="cls-1" d="M58.8906,95c-1.0234,0-2.0469-.3906-2.8281-1.1714-1.5625-1.562-1.5625-4.0942-.001-5.6567,1.6104-1.6104,2.4971-3.7505,2.4971-6.0259,0-4.6987-3.8223-8.521-8.5215-8.521s-8.5215,3.8223-8.5215,8.521c0,2.2764.8867,4.416,2.4961,6.0254,1.5625,1.562,1.5625,4.0942.001,5.6567-1.5625,1.5625-4.0947,1.562-5.6572.0005-3.1211-3.1201-4.8398-7.269-4.8398-11.6826,0-9.1099,7.4111-16.521,16.5215-16.521s16.5215,7.4111,16.5215,16.521c0,4.4121-1.7188,8.561-4.8389,11.6821-.7812.7812-1.8057,1.1719-2.8291,1.1719Z"/>
  <circle class="cls-2" cx="41.1832" cy="91" r="4"/>
  <path class="cls-2" d="M93,54h-22c-2.209,0-4-1.791-4-4s1.791-4,4-4h12.3428l-4.1709-4.1714c-1.5625-1.5625-1.5625-4.0947,0-5.6572,1.5605-1.5615,4.0957-1.5615,5.6562,0l11,11c1.1445,1.144,1.4863,2.8647.8672,4.3594s-2.0771,2.4692-3.6953,2.4692Z"/>
  <path class="cls-2" d="M61,22c-1.0234,0-2.0479-.3906-2.8281-1.1714l-8.1719-8.1719-8.1719,8.1719c-1.5605,1.5615-4.0957,1.5615-5.6562,0-1.5625-1.5625-1.5625-4.0947,0-5.6572l11-11c1.5605-1.5615,4.0957-1.5615,5.6562,0l11,11c1.5625,1.5625,1.5625,4.0947,0,5.6572-.7803.7808-1.8047,1.1714-2.8281,1.1714Z"/>
  <path class="cls-2" d="M29,54H7c-1.6182,0-3.0762-.9746-3.6953-2.4692s-.2773-3.2153.8672-4.3594l11-11c1.5605-1.5615,4.0957-1.5615,5.6562,0,1.5625,1.5625,1.5625,4.0947,0,5.6572l-4.1709,4.1714h12.3428c2.209,0,4,1.791,4,4s-1.791,4-4,4Z"/>
  <path class="cls-2" d="M78,57.5v33.5c0,2.209,1.791,4,4,4s4-1.791,4-4v-33.5h-8Z"/>
  <path class="cls-2" d="M14,57.5v33.5c0,2.209,1.791,4,4,4s4-1.791,4-4v-33.5h-8Z"/>
</svg>