<?xml version="1.0" encoding="UTF-8"?>
<svg id="Layer_1" data-name="Layer 1" xmlns="http://www.w3.org/2000/svg" viewBox="0 0 100 100">
  <defs>
    <style>
      .cls-1 {
        fill: #303030;
      }

      .cls-2 {
        fill: #f46023;
      }
    </style>
  </defs>
  <path class="cls-1" d="M20,6c-2.7617,0-5,2.2388-5,5v18.8891c3.0554-1.8962,6.9446-1.8962,10,0V11c0-2.7612-2.2383-5-5-5Z"/>
  <path class="cls-1" d="M85,29.9556V11c0-2.7612-2.2383-5-5-5s-5,2.2388-5,5v18.9059c3.0629-1.8795,6.9523-1.8642,10,.0496Z"/>
  <path class="cls-1" d="M49.958,21.4351l-4.958,4.958v29.8481c0,2.7612,2.2383,5,5,5s5-2.2388,5-5v-29.7642l-5.042-5.042Z"/>
  <path class="cls-1" d="M57.8896,95c-1.2803,0-2.5596-.4883-3.5361-1.4648-1.9521-1.9531-1.9521-5.1187.001-7.0713,1.1621-1.1621,1.8027-2.708,1.8027-4.3535,0-3.3955-2.7617-6.1577-6.1572-6.1577s-6.1572,2.7622-6.1572,6.1577c0,1.6455.6406,3.1914,1.8027,4.3535,1.9531,1.9526,1.9531,5.1182.001,7.0713-1.9531,1.9531-5.1182,1.9531-7.0713.001-3.0518-3.0513-4.7324-7.1089-4.7324-11.4258,0-8.9092,7.248-16.1577,16.1572-16.1577s16.1572,7.2485,16.1572,16.1577c0,4.3169-1.6807,8.3745-4.7324,11.4258-.9766.9756-2.2559,1.4639-3.5352,1.4639Z"/>
  <circle class="cls-2" cx="42.1104" cy="90" r="5"/>
  <path class="cls-2" d="M32.042,55H7.958c-2.0225,0-3.8457-1.2183-4.6191-3.0864-.7744-1.8687-.3467-4.019,1.084-5.4492l12.042-12.042c1.9512-1.9521,5.1191-1.9521,7.0703,0,1.9531,1.9526,1.9531,5.1187,0,7.0713l-3.5059,3.5063h12.0127c2.7617,0,5,2.2388,5,5s-2.2383,5-5,5Z"/>
  <path class="cls-2" d="M91.958,55h-24c-2.7617,0-5-2.2388-5-5s2.2383-5,5-5h11.9287l-3.4639-3.4644c-1.9531-1.9526-1.9531-5.1187,0-7.0713,1.9512-1.9521,5.1191-1.9521,7.0703,0l12,12c1.4307,1.4302,1.8584,3.5806,1.084,5.4492-.7734,1.8682-2.5967,3.0864-4.6191,3.0864Z"/>
  <path class="cls-2" d="M62,25.042c-1.2793,0-2.5596-.4883-3.5352-1.4644l-8.5068-8.5063-8.5068,8.5063c-1.9512,1.9521-5.1191,1.9521-7.0703,0-1.9531-1.9526-1.9531-5.1187,0-7.0713l12.042-12.042c1.9512-1.9521,5.1191-1.9521,7.0703,0l12.042,12.042c1.9531,1.9526,1.9531,5.1187,0,7.0713-.9756.9761-2.2559,1.4644-3.5352,1.4644Z"/>
  <path class="cls-2" d="M15,59.5v30.5c0,2.7612,2.2383,5,5,5s5-2.2388,5-5v-30.5h-10Z"/>
  <path class="cls-2" d="M75,59.5v30.5c0,2.7612,2.2383,5,5,5s5-2.2388,5-5v-30.5h-10Z"/>
</svg>