<?xml version="1.0" encoding="UTF-8"?>
<svg id="Layer_1" data-name="Layer 1" xmlns="http://www.w3.org/2000/svg" viewBox="0 0 100 100">
  <defs>
    <style>
      .cls-1 {
        fill: #303030;
      }

      .cls-2 {
        fill: #f46023;
      }
    </style>
  </defs>
  <path class="cls-2" d="M78,53.5v38.5c0,1.6567,1.3428,3,3,3s3-1.3433,3-3v-38.5h-6Z"/>
  <path class="cls-1" d="M50,15.0889l-3,3v38.1523c0,1.6567,1.3433,3,3,3s3-1.3433,3-3V18.0889l-3-3Z"/>
  <path class="cls-1" d="M22,31.7704V11c0-1.6567-1.3433-3-3-3s-3,1.3433-3,3v20.7704c1.8641-1.0214,4.1359-1.0214,6,0Z"/>
  <path class="cls-1" d="M59.3198,95c-.7676,0-1.5356-.293-2.1211-.8789-1.1719-1.1714-1.1719-3.0708,0-4.2422,1.9229-1.9233,2.9819-4.48,2.9819-7.1987,0-5.6133-4.5669-10.1802-10.1807-10.1802s-10.1802,4.5669-10.1802,10.1802c0,2.7192,1.0591,5.2759,2.9814,7.1987,1.1719,1.1714,1.1719,3.0708,0,4.2422-1.1709,1.1719-3.0713,1.1719-4.2422,0-3.0562-3.0557-4.7393-7.1191-4.7393-11.4409,0-8.9219,7.2583-16.1802,16.1802-16.1802s16.1807,7.2583,16.1807,16.1802c0,4.3218-1.6836,8.3848-4.7393,11.4409-.5859.5859-1.354.8789-2.1216.8789Z"/>
  <circle class="cls-2" cx="40.6802" cy="92" r="3"/>
  <path class="cls-2" d="M91,50.5h-20c-1.7949,0-3.25-1.4551-3.25-3.25s1.4551-3.25,3.25-3.25h12.1533l-4.4512-4.4517c-1.2695-1.2695-1.2695-3.3271,0-4.5967,1.2695-1.2686,3.3262-1.2686,4.5957,0l10,10c.9297.9297,1.208,2.3276.7051,3.542s-1.6885,2.0063-3.0029,2.0063Z"/>
  <path class="cls-2" d="M60.0664,19.5664c-.8315,0-1.6636-.3174-2.2983-.9517l-7.7681-7.7686-7.6353,7.6357c-1.2695,1.2686-3.3271,1.2686-4.5967,0-1.269-1.2695-1.269-3.3271,0-4.5967l9.9341-9.9336c1.2686-1.2686,3.3271-1.2686,4.5957,0l10.0664,10.0669c1.2695,1.269,1.2695,3.3267,0,4.5962-.6348.6343-1.4663.9517-2.2979.9517Z"/>
  <path class="cls-2" d="M29,50.5H9c-1.3145,0-2.4995-.792-3.0024-2.0063-.5034-1.2144-.2251-2.6123.7041-3.542l10-10c1.2695-1.2686,3.3271-1.2686,4.5967,0,1.269,1.2695,1.269,3.3271,0,4.5967l-4.4521,4.4517h12.1538c1.7949,0,3.25,1.4551,3.25,3.25s-1.4551,3.25-3.25,3.25Z"/>
  <path class="cls-1" d="M84,31.7704V11c0-1.6567-1.3428-3-3-3s-3,1.3433-3,3v20.7704c1.864-1.0215,4.136-1.0215,6,0Z"/>
  <path class="cls-2" d="M16,53.5v38.5c0,1.6567,1.3433,3,3,3s3-1.3433,3-3v-38.5h-6Z"/>
</svg>