<?xml version="1.0" encoding="UTF-8"?>
<svg id="Layer_1" data-name="Layer 1" xmlns="http://www.w3.org/2000/svg" viewBox="0 0 100 100">
  <defs>
    <style>
      .cls-1 {
        fill: #303030;
      }

      .cls-2 {
        fill: #f46023;
      }
    </style>
  </defs>
  <path class="cls-1" d="M55.7217,29.7783l-5.7217-5.7222-5.7217,5.7222c-.0894.0894-.1866.1658-.2783.2515v26.2114c0,3.3135,2.6865,6,6,6s6-2.6865,6-6v-26.2114c-.0917-.0857-.1888-.1621-.2783-.2515Z"/>
  <path class="cls-1" d="M28,27.2811V11c0-3.3135-2.6865-6-6-6s-6,2.6865-6,6v16.2811c3.6364-2.3716,8.3636-2.3716,12,0Z"/>
  <path class="cls-1" d="M84,27.2811V11c0-3.3135-2.6865-6-6-6s-6,2.6865-6,6v16.2811c3.6364-2.3716,8.3636-2.3716,12,0Z"/>
  <path class="cls-1" d="M57.8896,95c-1.4082,0-2.8154-.5371-3.8896-1.6113-2.1475-2.1479-2.1475-5.6304.001-7.7783,1.0684-1.0679,1.6562-2.4883,1.6562-4,0-3.1196-2.5381-5.6577-5.6572-5.6577s-5.6572,2.5381-5.6572,5.6577c0,1.5117.5879,2.9321,1.6562,4,2.1484,2.1479,2.1484,5.6304.001,7.7783s-5.6289,2.1494-7.7783.001c-3.1465-3.1455-4.8789-7.3286-4.8789-11.7793,0-9.1851,7.4727-16.6577,16.6572-16.6577s16.6572,7.4727,16.6572,16.6577c0,4.4507-1.7324,8.6338-4.8789,11.7793-1.0742,1.0732-2.4814,1.6104-3.8887,1.6104Z"/>
  <circle class="cls-2" cx="42.1104" cy="89.5" r="5.5"/>
  <path class="cls-2" d="M35.5,55.5H8.5c-2.2246,0-4.2305-1.3398-5.0811-3.395-.8516-2.0557-.3809-4.4209,1.1924-5.9941l13.5-13.5c2.1465-2.1475,5.6309-2.1475,7.7773,0,2.1484,2.1479,2.1484,5.6304,0,7.7783l-4.1104,4.1108h13.7217c3.0371,0,5.5,2.4624,5.5,5.5s-2.4629,5.5-5.5,5.5Z"/>
  <path class="cls-2" d="M91.5,55.5h-27c-3.0371,0-5.5-2.4624-5.5-5.5s2.4629-5.5,5.5-5.5h13.7217l-4.1104-4.1108c-2.1484-2.1479-2.1484-5.6304,0-7.7783,2.1465-2.1475,5.6309-2.1475,7.7773,0l13.5,13.5c1.5732,1.5732,2.0439,3.9385,1.1924,5.9941-.8506,2.0552-2.8564,3.395-5.0811,3.395Z"/>
  <path class="cls-2" d="M63.5,27.5c-1.4072,0-2.8154-.5371-3.8887-1.6108l-9.6113-9.6108-9.6113,9.6108c-2.1465,2.1475-5.6309,2.1475-7.7773,0-2.1484-2.1479-2.1484-5.6304,0-7.7783l13.5-13.5c2.1465-2.1475,5.6309-2.1475,7.7773,0l13.5,13.5c2.1484,2.1479,2.1484,5.6304,0,7.7783-1.0732,1.0737-2.4814,1.6108-3.8887,1.6108Z"/>
  <path class="cls-2" d="M16,61v28c0,3.3135,2.6865,6,6,6s6-2.6865,6-6v-28h-12Z"/>
  <path class="cls-2" d="M72,61v28c0,3.3135,2.6865,6,6,6s6-2.6865,6-6v-28h-12Z"/>
</svg>